<svg width="17" height="8" viewBox="0 0 17 8" fill="none" xmlns="http://www.w3.org/2000/svg">
<path d="M0.552734 4.28322C0.552734 3.59839 0.64151 2.96881 0.81906 2.39449C0.998422 1.81836 1.25388 1.28842 1.58543 0.804688H2.15069C2.02024 0.98405 1.89795 1.20508 1.78381 1.46778C1.67148 1.72867 1.57274 2.01583 1.48759 2.32927C1.40244 2.64088 1.33541 2.96337 1.28649 3.29673C1.23938 3.63009 1.21583 3.95892 1.21583 4.28322C1.21583 4.71442 1.2575 5.15195 1.34084 5.59583C1.42418 6.0397 1.53651 6.45188 1.67782 6.83234C1.81914 7.21281 1.97676 7.52261 2.15069 7.76176H1.58543C1.25388 7.27803 0.998422 6.749 0.81906 6.17468C0.64151 5.59855 0.552734 4.96806 0.552734 4.28322Z" fill="#9B9B9B"/>
<path d="M5.0429 1.5004V7.06605H4.36893V2.20697H4.33632L2.97752 3.10922V2.42438L4.36893 1.5004H5.0429Z" fill="#9B9B9B"/>
<path d="M6.8175 7.06605L9.30683 2.14175V2.09827H6.43703V1.5004H10.0025V2.13088L7.52408 7.06605H6.8175Z" fill="#9B9B9B"/>
<path d="M12.6862 7.14215C12.313 7.14215 11.9832 7.07602 11.697 6.94376C11.4125 6.80969 11.1906 6.6258 11.0311 6.39209C10.8717 6.15656 10.7929 5.88842 10.7947 5.58768C10.7929 5.35215 10.8391 5.13474 10.9333 4.93545C11.0275 4.73435 11.1562 4.56676 11.3192 4.43269C11.4841 4.29681 11.668 4.21076 11.8709 4.17452V4.14191C11.6046 4.07306 11.3926 3.92359 11.235 3.6935C11.0773 3.4616 10.9994 3.19799 11.0013 2.90268C10.9994 2.62005 11.071 2.36731 11.2159 2.14447C11.3609 1.92162 11.5602 1.74589 11.8138 1.61725C12.0693 1.48862 12.3601 1.4243 12.6862 1.4243C13.0087 1.4243 13.2967 1.48862 13.5504 1.61725C13.804 1.74589 14.0033 1.92162 14.1482 2.14447C14.295 2.36731 14.3693 2.62005 14.3711 2.90268C14.3693 3.19799 14.2887 3.4616 14.1292 3.6935C13.9716 3.92359 13.7623 4.07306 13.5015 4.14191V4.17452C13.7026 4.21076 13.8837 4.29681 14.045 4.43269C14.2062 4.56676 14.3349 4.73435 14.4309 4.93545C14.5269 5.13474 14.5758 5.35215 14.5776 5.58768C14.5758 5.88842 14.4943 6.15656 14.333 6.39209C14.1736 6.6258 13.9517 6.80969 13.6672 6.94376C13.3846 7.07602 13.0576 7.14215 12.6862 7.14215ZM12.6862 6.54427C12.938 6.54427 13.1554 6.50351 13.3384 6.42198C13.5214 6.34045 13.6627 6.22541 13.7623 6.07685C13.862 5.92828 13.9127 5.75436 13.9145 5.55507C13.9127 5.3449 13.8584 5.1592 13.7515 4.99796C13.6446 4.83671 13.4987 4.70989 13.3139 4.61749C13.131 4.52509 12.9217 4.47889 12.6862 4.47889C12.4488 4.47889 12.2369 4.52509 12.0502 4.61749C11.8655 4.70989 11.7196 4.83671 11.6127 4.99796C11.5076 5.1592 11.456 5.3449 11.4578 5.55507C11.456 5.75436 11.504 5.92828 11.6018 6.07685C11.7015 6.22541 11.8437 6.34045 12.0285 6.42198C12.2133 6.50351 12.4325 6.54427 12.6862 6.54427ZM12.6862 3.90276C12.8855 3.90276 13.0621 3.8629 13.2161 3.78319C13.3719 3.70347 13.4942 3.59205 13.583 3.44892C13.6718 3.30579 13.717 3.13821 13.7189 2.94616C13.717 2.75774 13.6727 2.59378 13.5857 2.45428C13.4987 2.31296 13.3783 2.20426 13.2243 2.12816C13.0703 2.05026 12.8909 2.01131 12.6862 2.01131C12.4778 2.01131 12.2957 2.05026 12.1399 2.12816C11.9841 2.20426 11.8636 2.31296 11.7785 2.45428C11.6933 2.59378 11.6517 2.75774 11.6535 2.94616C11.6517 3.13821 11.6942 3.30579 11.7812 3.44892C11.87 3.59205 11.9923 3.70347 12.1481 3.78319C12.3039 3.8629 12.4833 3.90276 12.6862 3.90276Z" fill="#9B9B9B"/>
<path d="M16.9997 4.28322C16.9997 4.96806 16.91 5.59855 16.7306 6.17468C16.5531 6.749 16.2985 7.27803 15.967 7.76176H15.4017C15.5322 7.5824 15.6536 7.36137 15.7659 7.09867C15.88 6.83778 15.9797 6.55152 16.0648 6.2399C16.15 5.92647 16.2161 5.60308 16.2632 5.26972C16.3121 4.93455 16.3366 4.60571 16.3366 4.28322C16.3366 3.85203 16.2949 3.4145 16.2116 2.97062C16.1282 2.52674 16.0159 2.11457 15.8746 1.73411C15.7333 1.35364 15.5757 1.04384 15.4017 0.804688H15.967C16.2985 1.28842 16.5531 1.81836 16.7306 2.39449C16.91 2.96881 16.9997 3.59839 16.9997 4.28322Z" fill="#9B9B9B"/>
</svg>
