<svg width="17" height="8" viewBox="0 0 17 8" fill="none" xmlns="http://www.w3.org/2000/svg">
<path d="M0.552734 3.68166C0.552734 2.99683 0.64151 2.36725 0.81906 1.79293C0.998422 1.21679 1.25388 0.686859 1.58543 0.203125H2.15069C2.02024 0.382487 1.89795 0.603519 1.78381 0.866221C1.67148 1.12711 1.57274 1.41427 1.48759 1.7277C1.40244 2.03932 1.33541 2.36181 1.28649 2.69517C1.23938 3.02853 1.21583 3.35736 1.21583 3.68166C1.21583 4.11286 1.2575 4.55039 1.34084 4.99427C1.42418 5.43814 1.53651 5.85031 1.67782 6.23078C1.81914 6.61124 1.97676 6.92105 2.15069 7.1602H1.58543C1.25388 6.67647 0.998422 6.14744 0.81906 5.57312C0.64151 4.99698 0.552734 4.3665 0.552734 3.68166Z" fill="#9B9B9B"/>
<path d="M5.0429 0.898833V6.46449H4.36893V1.60541H4.33632L2.97752 2.50766V1.82282L4.36893 0.898833H5.0429Z" fill="#9B9B9B"/>
<path d="M6.8175 6.46449L9.30683 1.54019V1.49671H6.43703V0.898833H10.0025V1.52932L7.52408 6.46449H6.8175Z" fill="#9B9B9B"/>
<path d="M12.6862 6.54058C12.313 6.54058 11.9832 6.47446 11.697 6.3422C11.4125 6.20813 11.1906 6.02424 11.0311 5.79053C10.8717 5.555 10.7929 5.28686 10.7947 4.98611C10.7929 4.75059 10.8391 4.53318 10.9333 4.33389C11.0275 4.13279 11.1562 3.9652 11.3192 3.83113C11.4841 3.69525 11.668 3.60919 11.8709 3.57296V3.54035C11.6046 3.4715 11.3926 3.32203 11.235 3.09194C11.0773 2.86004 10.9994 2.59643 11.0013 2.30112C10.9994 2.01849 11.071 1.76575 11.2159 1.54291C11.3609 1.32006 11.5602 1.14432 11.8138 1.01569C12.0693 0.887056 12.3601 0.82274 12.6862 0.82274C13.0087 0.82274 13.2967 0.887056 13.5504 1.01569C13.804 1.14432 14.0033 1.32006 14.1482 1.54291C14.295 1.76575 14.3693 2.01849 14.3711 2.30112C14.3693 2.59643 14.2887 2.86004 14.1292 3.09194C13.9716 3.32203 13.7623 3.4715 13.5015 3.54035V3.57296C13.7026 3.60919 13.8837 3.69525 14.045 3.83113C14.2062 3.9652 14.3349 4.13279 14.4309 4.33389C14.5269 4.53318 14.5758 4.75059 14.5776 4.98611C14.5758 5.28686 14.4943 5.555 14.333 5.79053C14.1736 6.02424 13.9517 6.20813 13.6672 6.3422C13.3846 6.47446 13.0576 6.54058 12.6862 6.54058ZM12.6862 5.94271C12.938 5.94271 13.1554 5.90195 13.3384 5.82042C13.5214 5.73889 13.6627 5.62385 13.7623 5.47528C13.862 5.32672 13.9127 5.15279 13.9145 4.9535C13.9127 4.74334 13.8584 4.55764 13.7515 4.39639C13.6446 4.23515 13.4987 4.10833 13.3139 4.01593C13.131 3.92353 12.9217 3.87733 12.6862 3.87733C12.4488 3.87733 12.2369 3.92353 12.0502 4.01593C11.8655 4.10833 11.7196 4.23515 11.6127 4.39639C11.5076 4.55764 11.456 4.74334 11.4578 4.9535C11.456 5.15279 11.504 5.32672 11.6018 5.47528C11.7015 5.62385 11.8437 5.73889 12.0285 5.82042C12.2133 5.90195 12.4325 5.94271 12.6862 5.94271ZM12.6862 3.3012C12.8855 3.3012 13.0621 3.26134 13.2161 3.18162C13.3719 3.10191 13.4942 2.99048 13.583 2.84736C13.6718 2.70423 13.717 2.53664 13.7189 2.3446C13.717 2.15618 13.6727 1.99222 13.5857 1.85271C13.4987 1.7114 13.3783 1.60269 13.2243 1.5266C13.0703 1.4487 12.8909 1.40974 12.6862 1.40974C12.4778 1.40974 12.2957 1.4487 12.1399 1.5266C11.9841 1.60269 11.8636 1.7114 11.7785 1.85271C11.6933 1.99222 11.6517 2.15618 11.6535 2.3446C11.6517 2.53664 11.6942 2.70423 11.7812 2.84736C11.87 2.99048 11.9923 3.10191 12.1481 3.18162C12.3039 3.26134 12.4833 3.3012 12.6862 3.3012Z" fill="#9B9B9B"/>
<path d="M16.9997 3.68166C16.9997 4.3665 16.91 4.99698 16.7306 5.57312C16.5531 6.14744 16.2985 6.67647 15.967 7.1602H15.4017C15.5322 6.98084 15.6536 6.7598 15.7659 6.4971C15.88 6.23621 15.9797 5.94996 16.0648 5.63834C16.15 5.32491 16.2161 5.00151 16.2632 4.66815C16.3121 4.33298 16.3366 4.00415 16.3366 3.68166C16.3366 3.25047 16.2949 2.81293 16.2116 2.36906C16.1282 1.92518 16.0159 1.51301 15.8746 1.13255C15.7333 0.752082 15.5757 0.442275 15.4017 0.203125H15.967C16.2985 0.686859 16.5531 1.21679 16.7306 1.79293C16.91 2.36725 16.9997 2.99683 16.9997 3.68166Z" fill="#9B9B9B"/>
</svg>
