<svg width="17" height="7" viewBox="0 0 17 7" fill="none" xmlns="http://www.w3.org/2000/svg">
<path d="M0.552734 3.48244C0.552734 2.79761 0.64151 2.16803 0.81906 1.59371C0.998422 1.01757 1.25388 0.48764 1.58543 0.00390625H2.15069C2.02024 0.183269 1.89795 0.404301 1.78381 0.667003C1.67148 0.927893 1.57274 1.21505 1.48759 1.52848C1.40244 1.8401 1.33541 2.16259 1.28649 2.49595C1.23938 2.82931 1.21583 3.15814 1.21583 3.48244C1.21583 3.91364 1.2575 4.35117 1.34084 4.79505C1.42418 5.23892 1.53651 5.65109 1.67782 6.03156C1.81914 6.41202 1.97676 6.72183 2.15069 6.96098H1.58543C1.25388 6.47725 0.998422 5.94822 0.81906 5.3739C0.64151 4.79777 0.552734 4.16728 0.552734 3.48244Z" fill="#9B9B9B"/>
<path d="M5.0429 0.699614V6.26527H4.36893V1.40619H4.33632L2.97752 2.30844V1.6236L4.36893 0.699614H5.0429Z" fill="#9B9B9B"/>
<path d="M6.8175 6.26527L9.30683 1.34097V1.29749H6.43703V0.699614H10.0025V1.3301L7.52408 6.26527H6.8175Z" fill="#9B9B9B"/>
<path d="M12.6862 6.34137C12.313 6.34137 11.9832 6.27524 11.697 6.14298C11.4125 6.00891 11.1906 5.82502 11.0311 5.59131C10.8717 5.35578 10.7929 5.08764 10.7947 4.78689C10.7929 4.55137 10.8391 4.33396 10.9333 4.13467C11.0275 3.93357 11.1562 3.76598 11.3192 3.63191C11.4841 3.49603 11.668 3.40997 11.8709 3.37374V3.34113C11.6046 3.27228 11.3926 3.12281 11.235 2.89272C11.0773 2.66082 10.9994 2.39721 11.0013 2.1019C10.9994 1.81927 11.071 1.56653 11.2159 1.34369C11.3609 1.12084 11.5602 0.945104 11.8138 0.816471C12.0693 0.687838 12.3601 0.623521 12.6862 0.623521C13.0087 0.623521 13.2967 0.687838 13.5504 0.816471C13.804 0.945104 14.0033 1.12084 14.1482 1.34369C14.295 1.56653 14.3693 1.81927 14.3711 2.1019C14.3693 2.39721 14.2887 2.66082 14.1292 2.89272C13.9716 3.12281 13.7623 3.27228 13.5015 3.34113V3.37374C13.7026 3.40997 13.8837 3.49603 14.045 3.63191C14.2062 3.76598 14.3349 3.93357 14.4309 4.13467C14.5269 4.33396 14.5758 4.55137 14.5776 4.78689C14.5758 5.08764 14.4943 5.35578 14.333 5.59131C14.1736 5.82502 13.9517 6.00891 13.6672 6.14298C13.3846 6.27524 13.0576 6.34137 12.6862 6.34137ZM12.6862 5.74349C12.938 5.74349 13.1554 5.70273 13.3384 5.6212C13.5214 5.53967 13.6627 5.42463 13.7623 5.27606C13.862 5.1275 13.9127 4.95358 13.9145 4.75428C13.9127 4.54412 13.8584 4.35842 13.7515 4.19717C13.6446 4.03593 13.4987 3.90911 13.3139 3.81671C13.131 3.72431 12.9217 3.67811 12.6862 3.67811C12.4488 3.67811 12.2369 3.72431 12.0502 3.81671C11.8655 3.90911 11.7196 4.03593 11.6127 4.19717C11.5076 4.35842 11.456 4.54412 11.4578 4.75428C11.456 4.95358 11.504 5.1275 11.6018 5.27606C11.7015 5.42463 11.8437 5.53967 12.0285 5.6212C12.2133 5.70273 12.4325 5.74349 12.6862 5.74349ZM12.6862 3.10198C12.8855 3.10198 13.0621 3.06212 13.2161 2.9824C13.3719 2.90269 13.4942 2.79127 13.583 2.64814C13.6718 2.50501 13.717 2.33742 13.7189 2.14538C13.717 1.95696 13.6727 1.793 13.5857 1.65349C13.4987 1.51218 13.3783 1.40347 13.2243 1.32738C13.0703 1.24948 12.8909 1.21052 12.6862 1.21052C12.4778 1.21052 12.2957 1.24948 12.1399 1.32738C11.9841 1.40347 11.8636 1.51218 11.7785 1.65349C11.6933 1.793 11.6517 1.95696 11.6535 2.14538C11.6517 2.33742 11.6942 2.50501 11.7812 2.64814C11.87 2.79127 11.9923 2.90269 12.1481 2.9824C12.3039 3.06212 12.4833 3.10198 12.6862 3.10198Z" fill="#9B9B9B"/>
<path d="M16.9997 3.48244C16.9997 4.16728 16.91 4.79777 16.7306 5.3739C16.5531 5.94822 16.2985 6.47725 15.967 6.96098H15.4017C15.5322 6.78162 15.6536 6.56059 15.7659 6.29788C15.88 6.03699 15.9797 5.75074 16.0648 5.43912C16.15 5.12569 16.2161 4.8023 16.2632 4.46894C16.3121 4.13376 16.3366 3.80493 16.3366 3.48244C16.3366 3.05125 16.2949 2.61372 16.2116 2.16984C16.1282 1.72596 16.0159 1.31379 15.8746 0.933328C15.7333 0.552863 15.5757 0.243056 15.4017 0.00390625H15.967C16.2985 0.48764 16.5531 1.01757 16.7306 1.59371C16.91 2.16803 16.9997 2.79761 16.9997 3.48244Z" fill="#9B9B9B"/>
</svg>
