<svg width="11" height="11" viewBox="0 0 11 11" fill="none" xmlns="http://www.w3.org/2000/svg">
<path d="M4.60822 1.10105C4.79913 0.513499 5.63035 0.513499 5.82126 1.10105L6.57495 3.42066C6.66032 3.68342 6.90518 3.86132 7.18146 3.86132H9.62045C10.2382 3.86132 10.4951 4.65187 9.9953 5.01499L8.02212 6.44859C7.7986 6.61099 7.70507 6.89884 7.79045 7.1616L8.54414 9.48121C8.73504 10.0688 8.06257 10.5573 7.56277 10.1942L5.58959 8.76062C5.36607 8.59822 5.06341 8.59822 4.83989 8.76062L2.86671 10.1942C2.36691 10.5573 1.69443 10.0688 1.88534 9.48121L2.63903 7.1616C2.7244 6.89884 2.63088 6.61099 2.40736 6.44859L0.434177 5.01499C-0.0656226 4.65187 0.19124 3.86132 0.809026 3.86132H3.24801C3.52429 3.86132 3.76916 3.68342 3.85453 3.42066L4.60822 1.10105Z" fill="#FFD600"/>
</svg>
