<svg width="11" height="11" viewBox="0 0 11 11" fill="none" xmlns="http://www.w3.org/2000/svg">
<path d="M4.46076 1.10105C4.65166 0.513499 5.48289 0.513499 5.6738 1.10105L6.42748 3.42066C6.51286 3.68342 6.75772 3.86132 7.034 3.86132H9.47299C10.0908 3.86132 10.3476 4.65187 9.84784 5.01499L7.87466 6.44859C7.65114 6.61099 7.55761 6.89884 7.64299 7.1616L8.39668 9.48121C8.58758 10.0688 7.91511 10.5573 7.41531 10.1942L5.44213 8.76062C5.21861 8.59822 4.91595 8.59822 4.69243 8.76062L2.71925 10.1942C2.21945 10.5573 1.54697 10.0688 1.73788 9.48121L2.49157 7.1616C2.57694 6.89884 2.48341 6.61099 2.2599 6.44859L0.286716 5.01499C-0.213084 4.65187 0.0437793 3.86132 0.661565 3.86132H3.10055C3.37683 3.86132 3.62169 3.68342 3.70707 3.42066L4.46076 1.10105Z" fill="#FFD600"/>
</svg>
