<svg width="11" height="11" viewBox="0 0 11 11" fill="none" xmlns="http://www.w3.org/2000/svg">
<path d="M4.70685 1.20261C4.89776 0.615062 5.72898 0.615062 5.91989 1.20261L6.67358 3.52223C6.75895 3.78499 7.00382 3.96289 7.2801 3.96289H9.71908C10.3369 3.96289 10.5937 4.75343 10.0939 5.11655L8.12075 6.55015C7.89723 6.71255 7.80371 7.0004 7.88908 7.26316L8.64277 9.58277C8.83368 10.1703 8.1612 10.6589 7.6614 10.2958L5.68822 8.86218C5.4647 8.69979 5.16204 8.69979 4.93852 8.86218L2.96534 10.2958C2.46554 10.6589 1.79307 10.1703 1.98397 9.58277L2.73766 7.26316C2.82304 7.0004 2.72951 6.71255 2.50599 6.55015L0.532809 5.11655C0.0330102 4.75343 0.289873 3.96289 0.907659 3.96289H3.34665C3.62293 3.96289 3.86779 3.78499 3.95316 3.52222L4.70685 1.20261Z" fill="#FFD600"/>
</svg>
