<svg width="11" height="11" viewBox="0 0 11 11" fill="none" xmlns="http://www.w3.org/2000/svg">
<path d="M4.70685 1.30417C4.89776 0.716624 5.72898 0.716624 5.91989 1.30417L6.67358 3.62379C6.75895 3.88655 7.00382 4.06445 7.2801 4.06445H9.71908C10.3369 4.06445 10.5937 4.85499 10.0939 5.21812L8.12075 6.65172C7.89723 6.81411 7.80371 7.10196 7.88908 7.36472L8.64277 9.68434C8.83368 10.2719 8.1612 10.7605 7.6614 10.3973L5.68822 8.96374C5.4647 8.80135 5.16204 8.80135 4.93852 8.96374L2.96534 10.3973C2.46554 10.7605 1.79307 10.2719 1.98397 9.68434L2.73766 7.36472C2.82304 7.10196 2.72951 6.81411 2.50599 6.65172L0.532809 5.21812C0.0330102 4.85499 0.289873 4.06445 0.907659 4.06445H3.34665C3.62293 4.06445 3.86779 3.88655 3.95316 3.62379L4.70685 1.30417Z" fill="#FFD600"/>
</svg>
