<svg width="11" height="11" viewBox="0 0 11 11" fill="none" xmlns="http://www.w3.org/2000/svg">
<path d="M4.60822 1.40183C4.79913 0.814281 5.63035 0.814281 5.82126 1.40183L6.57495 3.72144C6.66032 3.9842 6.90518 4.16211 7.18146 4.16211H9.62045C10.2382 4.16211 10.4951 4.95265 9.9953 5.31577L8.02212 6.74937C7.7986 6.91177 7.70507 7.19962 7.79045 7.46238L8.54414 9.78199C8.73504 10.3695 8.06257 10.8581 7.56277 10.495L5.58959 9.0614C5.36607 8.899 5.06341 8.899 4.83989 9.0614L2.86671 10.495C2.36691 10.8581 1.69443 10.3695 1.88534 9.78199L2.63903 7.46238C2.7244 7.19962 2.63088 6.91177 2.40736 6.74937L0.434177 5.31577C-0.0656226 4.95265 0.19124 4.16211 0.809026 4.16211H3.24801C3.52429 4.16211 3.76916 3.9842 3.85453 3.72144L4.60822 1.40183Z" fill="#FFD600"/>
</svg>
