<svg width="11" height="11" viewBox="0 0 11 11" fill="none" xmlns="http://www.w3.org/2000/svg">
<path d="M4.60822 1.30417C4.79913 0.716624 5.63035 0.716624 5.82126 1.30417L6.57495 3.62379C6.66032 3.88655 6.90518 4.06445 7.18146 4.06445H9.62045C10.2382 4.06445 10.4951 4.85499 9.9953 5.21812L8.02212 6.65172C7.7986 6.81411 7.70507 7.10196 7.79045 7.36472L8.54414 9.68434C8.73504 10.2719 8.06257 10.7605 7.56277 10.3973L5.58959 8.96374C5.36607 8.80135 5.06341 8.80135 4.83989 8.96374L2.86671 10.3973C2.36691 10.7605 1.69443 10.2719 1.88534 9.68434L2.63903 7.36472C2.7244 7.10196 2.63088 6.81411 2.40736 6.65172L0.434177 5.21812C-0.0656226 4.85499 0.19124 4.06445 0.809026 4.06445H3.24801C3.52429 4.06445 3.76916 3.88655 3.85453 3.62379L4.60822 1.30417Z" fill="#FFD600"/>
</svg>
