<svg width="11" height="11" viewBox="0 0 11 11" fill="none" xmlns="http://www.w3.org/2000/svg">
<path d="M4.70685 1.40183C4.89776 0.814281 5.72898 0.814281 5.91989 1.40183L6.67358 3.72144C6.75895 3.9842 7.00382 4.16211 7.2801 4.16211H9.71908C10.3369 4.16211 10.5937 4.95265 10.0939 5.31577L8.12075 6.74937C7.89723 6.91177 7.80371 7.19962 7.88908 7.46238L8.64277 9.78199C8.83368 10.3695 8.1612 10.8581 7.6614 10.495L5.68822 9.0614C5.4647 8.899 5.16204 8.899 4.93852 9.0614L2.96534 10.495C2.46554 10.8581 1.79307 10.3695 1.98397 9.78199L2.73766 7.46238C2.82304 7.19962 2.72951 6.91177 2.50599 6.74937L0.532809 5.31577C0.0330102 4.95265 0.289873 4.16211 0.907659 4.16211H3.34665C3.62293 4.16211 3.86779 3.9842 3.95316 3.72144L4.70685 1.40183Z" fill="#FFD600"/>
</svg>
