<svg width="11" height="11" viewBox="0 0 11 11" fill="none" xmlns="http://www.w3.org/2000/svg">
<path d="M5.31427 1.10105C5.50518 0.513499 6.33641 0.513499 6.52731 1.10105L7.281 3.42066C7.36638 3.68342 7.61124 3.86132 7.88752 3.86132H10.3265C10.9443 3.86132 11.2012 4.65187 10.7014 5.01499L8.72817 6.44859C8.50466 6.61099 8.41113 6.89884 8.4965 7.1616L9.25019 9.48121C9.4411 10.0688 8.76862 10.5573 8.26882 10.1942L6.29564 8.76062C6.07213 8.59822 5.76946 8.59822 5.54594 8.76062L3.57276 10.1942C3.07296 10.5573 2.40049 10.0688 2.59139 9.48121L3.34508 7.1616C3.43046 6.89884 3.33693 6.61099 3.11341 6.44859L1.14023 5.01499C0.640432 4.65187 0.897295 3.86132 1.51508 3.86132H3.95407C4.23035 3.86132 4.47521 3.68342 4.56059 3.42066L5.31427 1.10105Z" fill="#FFD600"/>
</svg>
