<svg width="24" height="37" viewBox="0 0 24 37" fill="none" xmlns="http://www.w3.org/2000/svg">
<path fill-rule="evenodd" clip-rule="evenodd" d="M6.72107 6.07954C6.72107 2.72837 9.43772 0.0117188 12.7889 0.0117188C16.1401 0.0117188 18.8567 2.72837 18.8567 6.07954C18.8567 9.4307 16.1401 12.1474 12.7889 12.1474C9.43772 12.1474 6.72107 9.4307 6.72107 6.07954ZM12.7889 2.03432C10.5548 2.03432 8.74368 3.84543 8.74368 6.07954C8.74368 8.31364 10.5548 10.1247 12.7889 10.1247C15.023 10.1247 16.8341 8.31364 16.8341 6.07954C16.8341 3.84543 15.023 2.03432 12.7889 2.03432Z" fill="#55B3FF"/>
<path d="M12.7889 16.6982C10.3892 16.6982 8.11538 17.2313 6.55926 17.7117C5.66852 17.9866 5.01398 18.7933 4.85379 19.8231L4.68645 20.8989C4.6006 21.4508 4.08361 21.8286 3.53172 21.7427C2.97983 21.6569 2.60203 21.1399 2.68788 20.588L2.85522 19.5122C3.11691 17.8299 4.23086 16.3137 5.96267 15.7791C7.62553 15.2657 10.1129 14.6756 12.7889 14.6756C15.4649 14.6756 17.9522 15.2657 19.6151 15.7791C21.3469 16.3137 22.4609 17.8299 22.7226 19.5122L22.8899 20.588C22.9757 21.1399 22.5979 21.6569 22.0461 21.7427C21.4942 21.8286 20.9772 21.4508 20.8913 20.8989L20.724 19.8231C20.5638 18.7933 19.9093 17.9866 19.0185 17.7117C17.4624 17.2313 15.1886 16.6982 12.7889 16.6982Z" fill="#55B3FF"/>
<path fill-rule="evenodd" clip-rule="evenodd" d="M0.408936 28.7277V36.0004H1.28962V33.3442H2.88053C3.44634 33.3442 3.91036 33.2412 4.27257 33.0352C4.63479 32.8269 4.90231 32.5475 5.07513 32.1971C5.25032 31.8468 5.33791 31.4573 5.33791 31.0288C5.33791 30.6003 5.25032 30.2121 5.07513 29.8641C4.89994 29.516 4.63005 29.2402 4.26547 29.0366C3.90325 28.8307 3.43687 28.7277 2.86632 28.7277H0.408936ZM1.28962 32.5629H2.85212C3.24274 32.5629 3.55643 32.4954 3.79317 32.3605C4.02991 32.2256 4.20155 32.0433 4.30808 31.8136C4.41698 31.5816 4.47144 31.32 4.47144 31.0288C4.47144 30.7376 4.41698 30.4772 4.30808 30.2476C4.20155 30.0179 4.02873 29.838 3.78962 29.7078C3.55051 29.5752 3.23327 29.5089 2.83791 29.5089H1.28962V32.5629Z" fill="#55B3FF"/>
<path fill-rule="evenodd" clip-rule="evenodd" d="M7.51121 35.766C7.89236 35.998 8.34573 36.1141 8.87129 36.1141C9.24061 36.1141 9.57323 36.0572 9.86916 35.9436C10.1651 35.8276 10.4137 35.6666 10.6149 35.4606C10.8161 35.2523 10.9594 35.0108 11.0446 34.7362L10.2349 34.5089C10.1639 34.6983 10.0633 34.8569 9.93308 34.9848C9.80287 35.1103 9.64781 35.205 9.46788 35.2689C9.29033 35.3304 9.09146 35.3612 8.87129 35.3612C8.53275 35.3612 8.23564 35.2878 7.97996 35.141C7.72428 34.9919 7.52423 34.7753 7.37982 34.4912C7.25102 34.2314 7.18062 33.9201 7.1686 33.5572H11.1298V33.2021C11.1298 32.6931 11.0623 32.2646 10.9274 31.9166C10.7925 31.5686 10.6114 31.2892 10.3841 31.0785C10.1568 30.8655 9.90467 30.7116 9.62769 30.6169C9.3507 30.5222 9.07016 30.4748 8.78607 30.4748C8.29364 30.4748 7.86277 30.5956 7.49345 30.8371C7.1265 31.0762 6.84004 31.41 6.63408 31.8385C6.43048 32.2646 6.32868 32.757 6.32868 33.3158C6.32868 33.8745 6.43048 34.3645 6.63408 34.7859C6.84004 35.205 7.13242 35.5317 7.51121 35.766ZM7.17074 32.8328C7.1867 32.5798 7.25047 32.3407 7.36206 32.1155C7.49227 31.8527 7.67811 31.6396 7.91959 31.4763C8.16343 31.3105 8.45226 31.2277 8.78607 31.2277C9.0891 31.2277 9.35188 31.2975 9.57442 31.4372C9.79932 31.5769 9.97215 31.7675 10.0929 32.0089C10.216 32.2504 10.2775 32.525 10.2775 32.8328H7.17074Z" fill="#55B3FF"/>
<path d="M12.4047 30.5459V36.0004H13.2427V32.5487C13.2427 32.3025 13.3019 32.0835 13.4203 31.8918C13.541 31.6976 13.7044 31.5461 13.9104 31.4372C14.1187 31.3259 14.3554 31.2703 14.6206 31.2703C14.7319 31.2703 14.8372 31.2786 14.9366 31.2952C15.0384 31.3094 15.1035 31.32 15.1319 31.3271V30.4748C15.0846 30.4701 15.0148 30.4666 14.9224 30.4642C14.8301 30.4618 14.7532 30.4606 14.6916 30.4606C14.3649 30.4606 14.0713 30.5447 13.8109 30.7128C13.5505 30.8809 13.3706 31.0998 13.2712 31.3697H13.2143V30.5459H12.4047Z" fill="#55B3FF"/>
<path d="M18.8962 31.2561V30.5459H17.6746V29.9919C17.6746 29.722 17.7349 29.5172 17.8557 29.3775C17.9788 29.2379 18.1788 29.168 18.4558 29.168C18.5765 29.168 18.6736 29.1787 18.747 29.2C18.8228 29.2213 18.8819 29.2391 18.9246 29.2533L19.166 28.5288C19.1021 28.5004 19.0051 28.4696 18.8748 28.4365C18.7446 28.4034 18.5765 28.3868 18.3706 28.3868C18.1102 28.3868 17.8628 28.4389 17.6284 28.543C17.394 28.6472 17.2034 28.8034 17.0567 29.0118C16.9099 29.2201 16.8365 29.4805 16.8365 29.793V30.5459H15.9558V31.2561H16.8365V36.0004H17.6746V31.2561H18.8962Z" fill="#55B3FF"/>
<path d="M20.0707 30.5459V36.0004H20.9088V30.5459H20.0707Z" fill="#55B3FF"/>
<path d="M20.0742 29.4699C20.1926 29.5811 20.3335 29.6368 20.4968 29.6368C20.6602 29.6368 20.7999 29.5811 20.9159 29.4699C21.0342 29.3586 21.0934 29.2248 21.0934 29.0686C21.0934 28.9123 21.0342 28.7786 20.9159 28.6673C20.7999 28.556 20.6602 28.5004 20.4968 28.5004C20.3335 28.5004 20.1926 28.556 20.0742 28.6673C19.9582 28.7786 19.9002 28.9123 19.9002 29.0686C19.9002 29.2248 19.9582 29.3586 20.0742 29.4699Z" fill="#55B3FF"/>
<path d="M23.2818 36.0004V28.7277H22.4437V36.0004H23.2818Z" fill="#55B3FF"/>
</svg>
