<svg width="24" height="37" viewBox="0 0 24 37" fill="none" xmlns="http://www.w3.org/2000/svg">
<path fill-rule="evenodd" clip-rule="evenodd" d="M6.44177 6.57954C6.44177 3.22837 9.15843 0.511719 12.5096 0.511719C15.8608 0.511719 18.5774 3.22837 18.5774 6.57954C18.5774 9.9307 15.8608 12.6474 12.5096 12.6474C9.15843 12.6474 6.44177 9.9307 6.44177 6.57954ZM12.5096 2.53432C10.2755 2.53432 8.46438 4.34543 8.46438 6.57954C8.46438 8.81364 10.2755 10.6247 12.5096 10.6247C14.7437 10.6247 16.5548 8.81364 16.5548 6.57954C16.5548 4.34543 14.7437 2.53432 12.5096 2.53432Z" fill="#55B3FF"/>
<path d="M12.5096 17.1982C10.1099 17.1982 7.83609 17.7313 6.27996 18.2117C5.38922 18.4866 4.73468 19.2933 4.5745 20.3231L4.40715 21.3989C4.3213 21.9508 3.80431 22.3286 3.25242 22.2427C2.70053 22.1569 2.32273 21.6399 2.40858 21.088L2.57593 20.0122C2.83761 18.3299 3.95156 16.8137 5.68337 16.2791C7.34623 15.7657 9.83359 15.1756 12.5096 15.1756C15.1856 15.1756 17.673 15.7657 19.3358 16.2791C21.0676 16.8137 22.1816 18.3299 22.4433 20.0122L22.6106 21.088C22.6965 21.6399 22.3187 22.1569 21.7668 22.2427C21.2149 22.3286 20.6979 21.9508 20.612 21.3989L20.4447 20.3231C20.2845 19.2933 19.63 18.4866 18.7392 18.2117C17.1831 17.7313 14.9093 17.1982 12.5096 17.1982Z" fill="#55B3FF"/>
<path fill-rule="evenodd" clip-rule="evenodd" d="M0.129639 29.2277V36.5004H1.01032V33.8442H2.60123C3.16704 33.8442 3.63106 33.7412 3.99328 33.5352C4.35549 33.3269 4.62301 33.0475 4.79583 32.6971C4.97102 32.3468 5.05862 31.9573 5.05862 31.5288C5.05862 31.1003 4.97102 30.7121 4.79583 30.3641C4.62064 30.016 4.35076 29.7402 3.98617 29.5366C3.62396 29.3307 3.15757 29.2277 2.58703 29.2277H0.129639ZM1.01032 33.0629H2.57282C2.96345 33.0629 3.27713 32.9954 3.51387 32.8605C3.75061 32.7256 3.92225 32.5433 4.02879 32.3136C4.13769 32.0816 4.19214 31.82 4.19214 31.5288C4.19214 31.2376 4.13769 30.9772 4.02879 30.7476C3.92225 30.5179 3.74943 30.338 3.51032 30.2078C3.27121 30.0752 2.95398 30.0089 2.55862 30.0089H1.01032V33.0629Z" fill="#55B3FF"/>
<path fill-rule="evenodd" clip-rule="evenodd" d="M7.23191 36.266C7.61307 36.498 8.06643 36.6141 8.592 36.6141C8.96132 36.6141 9.29394 36.5572 9.58987 36.4436C9.88579 36.3276 10.1344 36.1666 10.3356 35.9606C10.5368 35.7523 10.6801 35.5108 10.7653 35.2362L9.95563 35.0089C9.88461 35.1983 9.78399 35.3569 9.65379 35.4848C9.52358 35.6103 9.36851 35.705 9.18859 35.7689C9.01103 35.8304 8.81217 35.8612 8.592 35.8612C8.25346 35.8612 7.95634 35.7878 7.70066 35.641C7.44498 35.4919 7.24493 35.2753 7.10052 34.9912C6.97172 34.7314 6.90132 34.4201 6.88931 34.0572H10.8505V33.7021C10.8505 33.1931 10.783 32.7646 10.6481 32.4166C10.5132 32.0686 10.3321 31.7892 10.1048 31.5785C9.87751 31.3655 9.62538 31.2116 9.34839 31.1169C9.0714 31.0222 8.79086 30.9748 8.50677 30.9748C8.01435 30.9748 7.58347 31.0956 7.21416 31.3371C6.8472 31.5762 6.56075 31.91 6.35478 32.3385C6.15118 32.7646 6.04938 33.257 6.04938 33.8158C6.04938 34.3745 6.15118 34.8645 6.35478 35.2859C6.56075 35.705 6.85312 36.0317 7.23191 36.266ZM6.89145 33.3328C6.90741 33.0798 6.97118 32.8407 7.08276 32.6155C7.21297 32.3527 7.39881 32.1396 7.64029 31.9763C7.88414 31.8105 8.17296 31.7277 8.50677 31.7277C8.8098 31.7277 9.07258 31.7975 9.29512 31.9372C9.52003 32.0769 9.69285 32.2675 9.81359 32.5089C9.93669 32.7504 9.99825 33.025 9.99825 33.3328H6.89145Z" fill="#55B3FF"/>
<path d="M12.1254 31.0459V36.5004H12.9634V33.0487C12.9634 32.8025 13.0226 32.5835 13.141 32.3918C13.2617 32.1976 13.4251 32.0461 13.6311 31.9372C13.8394 31.8259 14.0761 31.7703 14.3413 31.7703C14.4526 31.7703 14.5579 31.7786 14.6573 31.7952C14.7591 31.8094 14.8242 31.82 14.8526 31.8271V30.9748C14.8053 30.9701 14.7355 30.9666 14.6431 30.9642C14.5508 30.9618 14.4739 30.9606 14.4123 30.9606C14.0856 30.9606 13.792 31.0447 13.5316 31.2128C13.2712 31.3809 13.0913 31.5998 12.9919 31.8697H12.935V31.0459H12.1254Z" fill="#55B3FF"/>
<path d="M18.6169 31.7561V31.0459H17.3953V30.4919C17.3953 30.222 17.4556 30.0172 17.5764 29.8775C17.6995 29.7379 17.8995 29.668 18.1765 29.668C18.2973 29.668 18.3943 29.6787 18.4677 29.7C18.5435 29.7213 18.6026 29.7391 18.6453 29.7533L18.8867 29.0288C18.8228 29.0004 18.7258 28.9696 18.5955 28.9365C18.4653 28.9034 18.2973 28.8868 18.0913 28.8868C17.8309 28.8868 17.5835 28.9389 17.3491 29.043C17.1147 29.1472 16.9241 29.3034 16.7774 29.5118C16.6306 29.7201 16.5572 29.9805 16.5572 30.293V31.0459H15.6765V31.7561H16.5572V36.5004H17.3953V31.7561H18.6169Z" fill="#55B3FF"/>
<path d="M19.7914 31.0459V36.5004H20.6295V31.0459H19.7914Z" fill="#55B3FF"/>
<path d="M19.7949 29.9699C19.9133 30.0811 20.0542 30.1368 20.2175 30.1368C20.3809 30.1368 20.5206 30.0811 20.6366 29.9699C20.7549 29.8586 20.8141 29.7248 20.8141 29.5686C20.8141 29.4123 20.7549 29.2786 20.6366 29.1673C20.5206 29.056 20.3809 29.0004 20.2175 29.0004C20.0542 29.0004 19.9133 29.056 19.7949 29.1673C19.6789 29.2786 19.6209 29.4123 19.6209 29.5686C19.6209 29.7248 19.6789 29.8586 19.7949 29.9699Z" fill="#55B3FF"/>
<path d="M23.0025 36.5004V29.2277H22.1644V36.5004H23.0025Z" fill="#55B3FF"/>
</svg>
