<svg width="24" height="37" viewBox="0 0 24 37" fill="none" xmlns="http://www.w3.org/2000/svg">
<path fill-rule="evenodd" clip-rule="evenodd" d="M7.28381 6.07954C7.28381 2.72837 10.0005 0.0117188 13.3516 0.0117188C16.7028 0.0117188 19.4194 2.72837 19.4194 6.07954C19.4194 9.4307 16.7028 12.1474 13.3516 12.1474C10.0005 12.1474 7.28381 9.4307 7.28381 6.07954ZM13.3516 2.03432C11.1175 2.03432 9.30642 3.84543 9.30642 6.07954C9.30642 8.31364 11.1175 10.1247 13.3516 10.1247C15.5857 10.1247 17.3968 8.31364 17.3968 6.07954C17.3968 3.84543 15.5857 2.03432 13.3516 2.03432Z" fill="#55B3FF"/>
<path d="M13.3516 16.6982C10.9519 16.6982 8.67813 17.2313 7.122 17.7117C6.23126 17.9866 5.57672 18.7933 5.41654 19.8231L5.24919 20.8989C5.16334 21.4508 4.64635 21.8286 4.09446 21.7427C3.54257 21.6569 3.16477 21.1399 3.25062 20.588L3.41797 19.5122C3.67965 17.8299 4.7936 16.3137 6.52541 15.7791C8.18827 15.2657 10.6756 14.6756 13.3516 14.6756C16.0276 14.6756 18.515 15.2657 20.1779 15.7791C21.9097 16.3137 23.0236 17.8299 23.2853 19.5122L23.4526 20.588C23.5385 21.1399 23.1607 21.6569 22.6088 21.7427C22.0569 21.8286 21.5399 21.4508 21.4541 20.8989L21.2867 19.8231C21.1265 18.7933 20.472 17.9866 19.5813 17.7117C18.0251 17.2313 15.7513 16.6982 13.3516 16.6982Z" fill="#55B3FF"/>
<path fill-rule="evenodd" clip-rule="evenodd" d="M0.97168 28.7277V36.0004H1.85236V33.3442H3.44327C4.00909 33.3442 4.4731 33.2412 4.83532 33.0352C5.19753 32.8269 5.46505 32.5475 5.63787 32.1971C5.81306 31.8468 5.90066 31.4573 5.90066 31.0288C5.90066 30.6003 5.81306 30.2121 5.63787 29.8641C5.46268 29.516 5.1928 29.2402 4.82821 29.0366C4.466 28.8307 3.99962 28.7277 3.42907 28.7277H0.97168ZM1.85236 32.5629H3.41486C3.80549 32.5629 4.11917 32.4954 4.35591 32.3605C4.59265 32.2256 4.76429 32.0433 4.87083 31.8136C4.97973 31.5816 5.03418 31.32 5.03418 31.0288C5.03418 30.7376 4.97973 30.4772 4.87083 30.2476C4.76429 30.0179 4.59147 29.838 4.35236 29.7078C4.11325 29.5752 3.79602 29.5089 3.40066 29.5089H1.85236V32.5629Z" fill="#55B3FF"/>
<path fill-rule="evenodd" clip-rule="evenodd" d="M8.07395 35.766C8.45511 35.998 8.90847 36.1141 9.43404 36.1141C9.80336 36.1141 10.136 36.0572 10.4319 35.9436C10.7278 35.8276 10.9764 35.6666 11.1776 35.4606C11.3789 35.2523 11.5221 35.0108 11.6073 34.7362L10.7977 34.5089C10.7267 34.6983 10.626 34.8569 10.4958 34.9848C10.3656 35.1103 10.2106 35.205 10.0306 35.2689C9.85307 35.3304 9.65421 35.3612 9.43404 35.3612C9.0955 35.3612 8.79838 35.2878 8.5427 35.141C8.28702 34.9919 8.08697 34.7753 7.94256 34.4912C7.81377 34.2314 7.74336 33.9201 7.73135 33.5572H11.6926V33.2021C11.6926 32.6931 11.6251 32.2646 11.4901 31.9166C11.3552 31.5686 11.1741 31.2892 10.9468 31.0785C10.7195 30.8655 10.4674 30.7116 10.1904 30.6169C9.91344 30.5222 9.6329 30.4748 9.34881 30.4748C8.85639 30.4748 8.42551 30.5956 8.0562 30.8371C7.68925 31.0762 7.40279 31.41 7.19682 31.8385C6.99322 32.2646 6.89142 32.757 6.89142 33.3158C6.89142 33.8745 6.99322 34.3645 7.19682 34.7859C7.40279 35.205 7.69516 35.5317 8.07395 35.766ZM7.73349 32.8328C7.74945 32.5798 7.81322 32.3407 7.9248 32.1155C8.05501 31.8527 8.24086 31.6396 8.48233 31.4763C8.72618 31.3105 9.015 31.2277 9.34881 31.2277C9.65184 31.2277 9.91463 31.2975 10.1372 31.4372C10.3621 31.5769 10.5349 31.7675 10.6556 32.0089C10.7787 32.2504 10.8403 32.525 10.8403 32.8328H7.73349Z" fill="#55B3FF"/>
<path d="M12.9674 30.5459V36.0004H13.8055V32.5487C13.8055 32.3025 13.8647 32.0835 13.983 31.8918C14.1038 31.6976 14.2671 31.5461 14.4731 31.4372C14.6814 31.3259 14.9182 31.2703 15.1833 31.2703C15.2946 31.2703 15.3999 31.2786 15.4994 31.2952C15.6012 31.3094 15.6663 31.32 15.6947 31.3271V30.4748C15.6473 30.4701 15.5775 30.4666 15.4852 30.4642C15.3928 30.4618 15.3159 30.4606 15.2544 30.4606C14.9276 30.4606 14.6341 30.5447 14.3737 30.7128C14.1133 30.8809 13.9333 31.0998 13.8339 31.3697H13.7771V30.5459H12.9674Z" fill="#55B3FF"/>
<path d="M19.4589 31.2561V30.5459H18.2373V29.9919C18.2373 29.722 18.2977 29.5172 18.4184 29.3775C18.5415 29.2379 18.7416 29.168 19.0186 29.168C19.1393 29.168 19.2364 29.1787 19.3097 29.2C19.3855 29.2213 19.4447 29.2391 19.4873 29.2533L19.7288 28.5288C19.6649 28.5004 19.5678 28.4696 19.4376 28.4365C19.3074 28.4034 19.1393 28.3868 18.9333 28.3868C18.6729 28.3868 18.4255 28.4389 18.1911 28.543C17.9568 28.6472 17.7662 28.8034 17.6194 29.0118C17.4726 29.2201 17.3992 29.4805 17.3992 29.793V30.5459H16.5186V31.2561H17.3992V36.0004H18.2373V31.2561H19.4589Z" fill="#55B3FF"/>
<path d="M20.6334 30.5459V36.0004H21.4715V30.5459H20.6334Z" fill="#55B3FF"/>
<path d="M20.637 29.4699C20.7554 29.5811 20.8962 29.6368 21.0596 29.6368C21.2229 29.6368 21.3626 29.5811 21.4786 29.4699C21.597 29.3586 21.6562 29.2248 21.6562 29.0686C21.6562 28.9123 21.597 28.7786 21.4786 28.6673C21.3626 28.556 21.2229 28.5004 21.0596 28.5004C20.8962 28.5004 20.7554 28.556 20.637 28.6673C20.521 28.7786 20.463 28.9123 20.463 29.0686C20.463 29.2248 20.521 29.3586 20.637 29.4699Z" fill="#55B3FF"/>
<path d="M23.8445 36.0004V28.7277H23.0065V36.0004H23.8445Z" fill="#55B3FF"/>
</svg>
