<svg width="37" height="36" viewBox="0 0 37 36" fill="none" xmlns="http://www.w3.org/2000/svg">
<path fill-rule="evenodd" clip-rule="evenodd" d="M10.4479 0.535156C8.21667 0.535156 6.4079 2.34392 6.4079 4.57516V18.7412C6.4079 20.9724 8.21667 22.7812 10.4479 22.7812H26.5713C28.8025 22.7812 30.6113 20.9724 30.6113 18.7412V8.52585C30.6113 6.29462 28.8025 4.48585 26.5713 4.48585H9.92194C9.36428 4.48585 8.9122 4.03378 8.9122 3.47611C8.9122 3.41056 8.90596 3.34646 8.89403 3.28439C9.26456 2.83882 9.8231 2.55516 10.4479 2.55516H27.6052C28.163 2.55516 28.6152 2.10296 28.6152 1.54516C28.6152 0.987349 28.163 0.535156 27.6052 0.535156H10.4479ZM8.4279 18.7412V6.11247C8.8688 6.36286 9.37867 6.50585 9.92194 6.50585H26.5713C27.6869 6.50585 28.5913 7.41024 28.5913 8.52585V18.7412C28.5913 19.8568 27.6869 20.7612 26.5713 20.7612H10.4479C9.33229 20.7612 8.4279 19.8568 8.4279 18.7412Z" fill="#CFD1DE"/>
<path fill-rule="evenodd" clip-rule="evenodd" d="M0.293701 28.2275V35.5002H2.92154C3.49446 35.5002 3.95966 35.415 4.31714 35.2446C4.67462 35.0741 4.93622 34.8433 5.10194 34.5521C5.26766 34.2609 5.35052 33.933 5.35052 33.5684C5.35052 33.1849 5.27476 32.8606 5.12325 32.5954C4.97173 32.3303 4.78352 32.1267 4.55862 31.9846C4.33371 31.8426 4.10999 31.7644 3.88745 31.7502V31.6792C4.09578 31.6224 4.28873 31.5348 4.46629 31.4164C4.64621 31.2981 4.79062 31.1371 4.89952 30.9335C5.01079 30.7299 5.06643 30.4718 5.06643 30.1593C5.06643 29.8042 4.98594 29.4811 4.82495 29.1899C4.66397 28.8963 4.41894 28.6631 4.08987 28.4903C3.76079 28.3151 3.34294 28.2275 2.83631 28.2275H0.293701ZM2.92154 34.719H1.17438V32.1906H2.96416C3.28139 32.1906 3.55601 32.2545 3.78802 32.3823C4.02003 32.5078 4.19877 32.6759 4.32424 32.8866C4.44971 33.0949 4.51245 33.3222 4.51245 33.5684C4.51245 33.888 4.39053 34.1603 4.14668 34.3852C3.90521 34.6077 3.49683 34.719 2.92154 34.719ZM2.80791 31.4235H1.17438V29.0088H2.83631C3.31927 29.0088 3.67202 29.1212 3.89455 29.3461C4.11709 29.5687 4.22836 29.8397 4.22836 30.1593C4.22836 30.415 4.16444 30.6375 4.0366 30.8269C3.91113 31.0163 3.74067 31.1631 3.52524 31.2673C3.31217 31.3714 3.07306 31.4235 2.80791 31.4235Z" fill="#CFD1DE"/>
<path d="M6.68397 30.0457V35.5002H7.52204V30.0457H6.68397Z" fill="#CFD1DE"/>
<path d="M6.68752 28.9697C6.80589 29.081 6.94675 29.1366 7.11011 29.1366C7.27346 29.1366 7.41314 29.081 7.52914 28.9697C7.64751 28.8584 7.7067 28.7247 7.7067 28.5684C7.7067 28.4122 7.64751 28.2784 7.52914 28.1671C7.41314 28.0559 7.27346 28.0002 7.11011 28.0002C6.94675 28.0002 6.80589 28.0559 6.68752 28.1671C6.57152 28.2784 6.51352 28.4122 6.51352 28.5684C6.51352 28.7247 6.57152 28.8584 6.68752 28.9697Z" fill="#CFD1DE"/>
<path d="M9.89509 35.5002V28.2275H9.05702V35.5002H9.89509Z" fill="#CFD1DE"/>
<path d="M12.2681 35.5002V28.2275H11.4301V35.5002H12.2681Z" fill="#CFD1DE"/>
<path fill-rule="evenodd" clip-rule="evenodd" d="M14.73 35.2659C15.1111 35.4979 15.5645 35.6139 16.09 35.6139C16.4594 35.6139 16.792 35.5571 17.0879 35.4434C17.3838 35.3274 17.6324 35.1664 17.8337 34.9605C18.0349 34.7521 18.1781 34.5107 18.2633 34.236L17.4537 34.0088C17.3827 34.1982 17.282 34.3568 17.1518 34.4846C17.0216 34.6101 16.8666 34.7048 16.6866 34.7687C16.5091 34.8303 16.3102 34.861 16.09 34.861C15.7515 34.861 15.4544 34.7876 15.1987 34.6409C14.943 34.4917 14.743 34.2751 14.5986 33.991C14.4698 33.7313 14.3994 33.4199 14.3874 33.0571H18.3486V32.7019C18.3486 32.1929 18.2811 31.7644 18.1462 31.4164C18.0112 31.0684 17.8301 30.7891 17.6028 30.5784C17.3756 30.3653 17.1234 30.2114 16.8464 30.1167C16.5694 30.022 16.2889 29.9747 16.0048 29.9747C15.5124 29.9747 15.0815 30.0954 14.7122 30.3369C14.3453 30.576 14.0588 30.9098 13.8528 31.3383C13.6492 31.7644 13.5474 32.2569 13.5474 32.8156C13.5474 33.3743 13.6492 33.8643 13.8528 34.2857C14.0588 34.7048 14.3512 35.0315 14.73 35.2659ZM14.3895 32.3326C14.4055 32.0796 14.4692 31.8405 14.5808 31.6153C14.711 31.3525 14.8969 31.1394 15.1383 30.9761C15.3822 30.8104 15.671 30.7275 16.0048 30.7275C16.3078 30.7275 16.5706 30.7973 16.7932 30.937C17.0181 31.0767 17.1909 31.2673 17.3116 31.5088C17.4347 31.7502 17.4963 32.0249 17.4963 32.3326H14.3895Z" fill="#CFD1DE"/>
<path d="M21.9956 30.7559V30.0457H20.8308V28.7389H19.9927V30.0457H19.1689V30.7559H19.9927V34.165C19.9927 34.4822 20.0661 34.745 20.2129 34.9534C20.3621 35.1617 20.5491 35.3168 20.774 35.4186C21.0013 35.5204 21.2333 35.5713 21.47 35.5713C21.6263 35.5713 21.7553 35.5594 21.8571 35.5357C21.9589 35.5144 22.0382 35.4931 22.095 35.4718L21.9246 34.719L21.7825 34.7474C21.7233 34.7569 21.6476 34.7616 21.5552 34.7616C21.4321 34.7616 21.3149 34.7427 21.2037 34.7048C21.0948 34.6645 21.0048 34.5864 20.9338 34.4704C20.8651 34.352 20.8308 34.1745 20.8308 33.9377V30.7559H21.9956Z" fill="#CFD1DE"/>
<path fill-rule="evenodd" clip-rule="evenodd" d="M24.1245 35.2659C24.5056 35.4979 24.959 35.6139 25.4846 35.6139C25.8539 35.6139 26.1865 35.5571 26.4824 35.4434C26.7784 35.3274 27.027 35.1664 27.2282 34.9605C27.4294 34.7521 27.5726 34.5107 27.6579 34.236L26.8482 34.0088C26.7772 34.1982 26.6766 34.3568 26.5464 34.4846C26.4162 34.6101 26.2611 34.7048 26.0812 34.7687C25.9036 34.8303 25.7047 34.861 25.4846 34.861C25.146 34.861 24.8489 34.7876 24.5932 34.6409C24.3376 34.4917 24.1375 34.2751 23.9931 33.991C23.8643 33.7313 23.7939 33.4199 23.7819 33.0571H27.7431V32.7019C27.7431 32.1929 27.6756 31.7644 27.5407 31.4164C27.4057 31.0684 27.2246 30.7891 26.9974 30.5784C26.7701 30.3653 26.518 30.2114 26.241 30.1167C25.964 30.022 25.6834 29.9747 25.3993 29.9747C24.9069 29.9747 24.4761 30.0954 24.1067 30.3369C23.7398 30.576 23.4533 30.9098 23.2474 31.3383C23.0438 31.7644 22.942 32.2569 22.942 32.8156C22.942 33.3743 23.0438 33.8643 23.2474 34.2857C23.4533 34.7048 23.7457 35.0315 24.1245 35.2659ZM23.784 32.3326C23.8 32.0796 23.8638 31.8405 23.9753 31.6153C24.1056 31.3525 24.2914 31.1394 24.5329 30.9761C24.7767 30.8104 25.0655 30.7275 25.3993 30.7275C25.7024 30.7275 25.9652 30.7973 26.1877 30.937C26.4126 31.0767 26.5854 31.2673 26.7062 31.5088C26.8293 31.7502 26.8908 32.0249 26.8908 32.3326H23.784Z" fill="#CFD1DE"/>
<path d="M29.018 30.0457V35.5002H29.856V32.0485C29.856 31.8023 29.9152 31.5833 30.0336 31.3916C30.1543 31.1974 30.3177 31.0459 30.5236 30.937C30.732 30.8258 30.9687 30.7701 31.2339 30.7701C31.3451 30.7701 31.4505 30.7784 31.5499 30.795C31.6517 30.8092 31.7168 30.8198 31.7452 30.8269V29.9747C31.6979 29.9699 31.628 29.9664 31.5357 29.964C31.4434 29.9616 31.3664 29.9605 31.3049 29.9605C30.9782 29.9605 30.6846 30.0445 30.4242 30.2126C30.1638 30.3807 29.9839 30.5997 29.8844 30.8696H29.8276V30.0457H29.018Z" fill="#CFD1DE"/>
<path fill-rule="evenodd" clip-rule="evenodd" d="M33.4027 35.4328C33.6844 35.563 33.9981 35.6281 34.3438 35.6281C34.661 35.6281 34.9297 35.5807 35.1499 35.486C35.3701 35.3913 35.5464 35.2765 35.679 35.1416C35.8116 35.0066 35.9063 34.88 35.9631 34.7616H36.0057V35.5002H36.8438V31.9065C36.8438 31.4732 36.7728 31.1276 36.6307 30.8696C36.4887 30.6115 36.3099 30.4186 36.0945 30.2907C35.8814 30.1629 35.6601 30.0788 35.4304 30.0386C35.2031 29.996 35.0019 29.9747 34.8267 29.9747C34.5521 29.9747 34.2728 30.0125 33.9887 30.0883C33.7069 30.1617 33.4465 30.2919 33.2074 30.4789C32.9707 30.6636 32.7813 30.9216 32.6392 31.2531L33.4347 31.5372C33.527 31.3383 33.6868 31.1513 33.9141 30.9761C34.1414 30.8009 34.455 30.7133 34.8551 30.7133C35.241 30.7133 35.5287 30.8104 35.7181 31.0045C35.9098 31.1986 36.0057 31.4709 36.0057 31.8213V31.8497C36.0057 31.9846 35.9572 32.0793 35.8601 32.1338C35.7654 32.1882 35.6139 32.2273 35.4056 32.2509C35.1996 32.2723 34.9309 32.3042 34.5995 32.3468C34.3461 32.38 34.094 32.4249 33.8431 32.4818C33.5945 32.5362 33.3672 32.6191 33.1612 32.7303C32.9553 32.8416 32.7907 32.9955 32.6676 33.192C32.5445 33.3861 32.483 33.6394 32.483 33.9519C32.483 34.3071 32.5658 34.6101 32.7316 34.861C32.8973 35.1096 33.121 35.3002 33.4027 35.4328ZM35.3097 34.6799C35.0824 34.8101 34.8031 34.8752 34.4716 34.8752C34.1378 34.8752 33.862 34.8018 33.6442 34.6551C33.4288 34.5059 33.321 34.2857 33.321 33.9946C33.321 33.7815 33.3779 33.6134 33.4915 33.4903C33.6075 33.3648 33.759 33.2713 33.946 33.2098C34.1354 33.1458 34.339 33.0997 34.5568 33.0713C34.6468 33.0594 34.764 33.0452 34.9084 33.0286C35.0552 33.0097 35.2055 32.9884 35.3594 32.9647C35.5156 32.9387 35.653 32.9091 35.7713 32.8759C35.8921 32.8404 35.9702 32.8014 36.0057 32.7588V33.5258C36.0057 33.7531 35.9465 33.9697 35.8281 34.1757C35.7121 34.3816 35.5393 34.5497 35.3097 34.6799Z" fill="#CFD1DE"/>
</svg>
