<svg width="24" height="37" viewBox="0 0 24 37" fill="none" xmlns="http://www.w3.org/2000/svg">
<path fill-rule="evenodd" clip-rule="evenodd" d="M6.7738 6.07954C6.7738 2.72837 9.49046 0.0117188 12.8416 0.0117188C16.1928 0.0117188 18.9094 2.72837 18.9094 6.07954C18.9094 9.4307 16.1928 12.1474 12.8416 12.1474C9.49046 12.1474 6.7738 9.4307 6.7738 6.07954ZM12.8416 2.03432C10.6075 2.03432 8.79641 3.84543 8.79641 6.07954C8.79641 8.31364 10.6075 10.1247 12.8416 10.1247C15.0757 10.1247 16.8868 8.31364 16.8868 6.07954C16.8868 3.84543 15.0757 2.03432 12.8416 2.03432Z" fill="#55B3FF"/>
<path d="M12.8416 16.6982C10.4419 16.6982 8.16812 17.2313 6.61199 17.7117C5.72125 17.9866 5.06671 18.7933 4.90653 19.8231L4.73918 20.8989C4.65333 21.4508 4.13634 21.8286 3.58445 21.7427C3.03256 21.6569 2.65476 21.1399 2.74061 20.588L2.90796 19.5122C3.16964 17.8299 4.2836 16.3137 6.0154 15.7791C7.67826 15.2657 10.1656 14.6756 12.8416 14.6756C15.5176 14.6756 18.005 15.2657 19.6678 15.7791C21.3997 16.3137 22.5136 17.8299 22.7753 19.5122L22.9426 20.588C23.0285 21.1399 22.6507 21.6569 22.0988 21.7427C21.5469 21.8286 21.0299 21.4508 20.9441 20.8989L20.7767 19.8231C20.6165 18.7933 19.962 17.9866 19.0713 17.7117C17.5151 17.2313 15.2413 16.6982 12.8416 16.6982Z" fill="#55B3FF"/>
<path fill-rule="evenodd" clip-rule="evenodd" d="M0.46167 28.7277V36.0004H1.34235V33.3442H2.93326C3.49908 33.3442 3.96309 33.2412 4.32531 33.0352C4.68752 32.8269 4.95504 32.5475 5.12786 32.1971C5.30305 31.8468 5.39065 31.4573 5.39065 31.0288C5.39065 30.6003 5.30305 30.2121 5.12786 29.8641C4.95267 29.516 4.68279 29.2402 4.3182 29.0366C3.95599 28.8307 3.48961 28.7277 2.91906 28.7277H0.46167ZM1.34235 32.5629H2.90485C3.29548 32.5629 3.60916 32.4954 3.8459 32.3605C4.08265 32.2256 4.25428 32.0433 4.36082 31.8136C4.46972 31.5816 4.52417 31.32 4.52417 31.0288C4.52417 30.7376 4.46972 30.4772 4.36082 30.2476C4.25428 30.0179 4.08146 29.838 3.84235 29.7078C3.60324 29.5752 3.28601 29.5089 2.89065 29.5089H1.34235V32.5629Z" fill="#55B3FF"/>
<path fill-rule="evenodd" clip-rule="evenodd" d="M7.56394 35.766C7.9451 35.998 8.39846 36.1141 8.92403 36.1141C9.29335 36.1141 9.62597 36.0572 9.9219 35.9436C10.2178 35.8276 10.4664 35.6666 10.6676 35.4606C10.8689 35.2523 11.0121 35.0108 11.0973 34.7362L10.2877 34.5089C10.2166 34.6983 10.116 34.8569 9.98582 34.9848C9.85561 35.1103 9.70054 35.205 9.52062 35.2689C9.34306 35.3304 9.1442 35.3612 8.92403 35.3612C8.58549 35.3612 8.28837 35.2878 8.03269 35.141C7.77701 34.9919 7.57696 34.7753 7.43255 34.4912C7.30376 34.2314 7.23335 33.9201 7.22134 33.5572H11.1826V33.2021C11.1826 32.6931 11.1151 32.2646 10.9801 31.9166C10.8452 31.5686 10.6641 31.2892 10.4368 31.0785C10.2095 30.8655 9.95741 30.7116 9.68042 30.6169C9.40343 30.5222 9.12289 30.4748 8.8388 30.4748C8.34638 30.4748 7.9155 30.5956 7.54619 30.8371C7.17924 31.0762 6.89278 31.41 6.68681 31.8385C6.48321 32.2646 6.38141 32.757 6.38141 33.3158C6.38141 33.8745 6.48321 34.3645 6.68681 34.7859C6.89278 35.205 7.18515 35.5317 7.56394 35.766ZM7.22348 32.8328C7.23944 32.5798 7.30321 32.3407 7.41479 32.1155C7.545 31.8527 7.73085 31.6396 7.97232 31.4763C8.21617 31.3105 8.50499 31.2277 8.8388 31.2277C9.14183 31.2277 9.40462 31.2975 9.62715 31.4372C9.85206 31.5769 10.0249 31.7675 10.1456 32.0089C10.2687 32.2504 10.3303 32.525 10.3303 32.8328H7.22348Z" fill="#55B3FF"/>
<path d="M12.4574 30.5459V36.0004H13.2955V32.5487C13.2955 32.3025 13.3547 32.0835 13.473 31.8918C13.5938 31.6976 13.7571 31.5461 13.9631 31.4372C14.1714 31.3259 14.4082 31.2703 14.6733 31.2703C14.7846 31.2703 14.8899 31.2786 14.9894 31.2952C15.0912 31.3094 15.1563 31.32 15.1847 31.3271V30.4748C15.1373 30.4701 15.0675 30.4666 14.9752 30.4642C14.8828 30.4618 14.8059 30.4606 14.7443 30.4606C14.4176 30.4606 14.1241 30.5447 13.8637 30.7128C13.6032 30.8809 13.4233 31.0998 13.3239 31.3697H13.2671V30.5459H12.4574Z" fill="#55B3FF"/>
<path d="M18.9489 31.2561V30.5459H17.7273V29.9919C17.7273 29.722 17.7877 29.5172 17.9084 29.3775C18.0315 29.2379 18.2316 29.168 18.5085 29.168C18.6293 29.168 18.7263 29.1787 18.7997 29.2C18.8755 29.2213 18.9347 29.2391 18.9773 29.2533L19.2188 28.5288C19.1549 28.5004 19.0578 28.4696 18.9276 28.4365C18.7974 28.4034 18.6293 28.3868 18.4233 28.3868C18.1629 28.3868 17.9155 28.4389 17.6811 28.543C17.4468 28.6472 17.2562 28.8034 17.1094 29.0118C16.9626 29.2201 16.8892 29.4805 16.8892 29.793V30.5459H16.0085V31.2561H16.8892V36.0004H17.7273V31.2561H18.9489Z" fill="#55B3FF"/>
<path d="M20.1234 30.5459V36.0004H20.9615V30.5459H20.1234Z" fill="#55B3FF"/>
<path d="M20.127 29.4699C20.2453 29.5811 20.3862 29.6368 20.5496 29.6368C20.7129 29.6368 20.8526 29.5811 20.9686 29.4699C21.087 29.3586 21.1462 29.2248 21.1462 29.0686C21.1462 28.9123 21.087 28.7786 20.9686 28.6673C20.8526 28.556 20.7129 28.5004 20.5496 28.5004C20.3862 28.5004 20.2453 28.556 20.127 28.6673C20.011 28.7786 19.953 28.9123 19.953 29.0686C19.953 29.2248 20.011 29.3586 20.127 29.4699Z" fill="#55B3FF"/>
<path d="M23.3345 36.0004V28.7277H22.4965V36.0004H23.3345Z" fill="#55B3FF"/>
</svg>
