<svg width="47" height="40" viewBox="0 0 47 40" fill="none" xmlns="http://www.w3.org/2000/svg">
<path fill-rule="evenodd" clip-rule="evenodd" d="M29.2183 2.02261H29.0456C28.6292 0.844244 27.5054 0 26.1844 0H20.1166C18.7956 0 17.6718 0.844243 17.2553 2.02261H17.0826C14.8485 2.02261 13.0374 3.8337 13.0374 6.06781V20.2261C13.0374 22.4602 14.8485 24.2713 17.0826 24.2713H29.2183C31.4524 24.2713 33.2635 22.4602 33.2635 20.2261V6.06782C33.2635 3.83371 31.4524 2.02261 29.2183 2.02261ZM15.06 6.06781C15.06 4.95076 15.9656 4.04521 17.0826 4.04521C17.0826 5.72079 18.441 7.07912 20.1166 7.07912H26.1844C27.8599 7.07912 29.2183 5.72079 29.2183 4.04521C30.3353 4.04521 31.2409 4.95076 31.2409 6.06782V20.2261C31.2409 21.3431 30.3353 22.2487 29.2183 22.2487H17.0826C15.9656 22.2487 15.06 21.3431 15.06 20.2261V6.06781ZM20.1166 2.02261C19.558 2.02261 19.1052 2.47538 19.1052 3.03391V4.04521C19.1052 4.60374 19.558 5.05651 20.1166 5.05651H26.1844C26.7429 5.05651 27.1957 4.60374 27.1957 4.04521V3.03391C27.1957 2.47538 26.7429 2.02261 26.1844 2.02261H20.1166Z" fill="#CFD1DE"/>
<path fill-rule="evenodd" clip-rule="evenodd" d="M0.422852 29.7273V37H1.30353V34.3438H2.89444C3.46026 34.3438 3.92427 34.2408 4.28649 34.0348C4.6487 33.8265 4.91622 33.5471 5.08904 33.1967C5.26423 32.8464 5.35183 32.4569 5.35183 32.0284C5.35183 31.5999 5.26423 31.2116 5.08904 30.8636C4.91386 30.5156 4.64397 30.2398 4.27939 30.0362C3.91717 29.8303 3.45079 29.7273 2.88024 29.7273H0.422852ZM1.30353 33.5625H2.86603C3.25666 33.5625 3.57034 33.495 3.80708 33.3601C4.04383 33.2251 4.21547 33.0429 4.322 32.8132C4.4309 32.5812 4.48535 32.3196 4.48535 32.0284C4.48535 31.7372 4.4309 31.4768 4.322 31.2472C4.21547 31.0175 4.04264 30.8376 3.80353 30.7074C3.56442 30.5748 3.24719 30.5085 2.85183 30.5085H1.30353V33.5625Z" fill="#CFD1DE"/>
<path d="M6.65687 31.5455V37H7.49494V33.5483C7.49494 33.3021 7.55413 33.0831 7.6725 32.8913C7.79323 32.6972 7.95659 32.5457 8.16255 32.4368C8.37089 32.3255 8.60763 32.2699 8.87278 32.2699C8.98405 32.2699 9.0894 32.2782 9.18883 32.2947C9.29063 32.3089 9.35573 32.3196 9.38414 32.3267V31.4744C9.3368 31.4697 9.26696 31.4661 9.17463 31.4638C9.0823 31.4614 9.00536 31.4602 8.9438 31.4602C8.6171 31.4602 8.32354 31.5443 8.06312 31.7124C7.8027 31.8804 7.62278 32.0994 7.52335 32.3693H7.46653V31.5455H6.65687Z" fill="#CFD1DE"/>
<path fill-rule="evenodd" clip-rule="evenodd" d="M11.1313 36.7621C11.503 36.9964 11.935 37.1136 12.4275 37.1136C12.9199 37.1136 13.3508 36.9964 13.7201 36.7621C14.0918 36.5277 14.3806 36.1998 14.5866 35.7784C14.7949 35.357 14.8991 34.8646 14.8991 34.3011C14.8991 33.733 14.7949 33.237 14.5866 32.8132C14.3806 32.3894 14.0918 32.0604 13.7201 31.826C13.3508 31.5916 12.9199 31.4744 12.4275 31.4744C11.935 31.4744 11.503 31.5916 11.1313 31.826C10.762 32.0604 10.4732 32.3894 10.2648 32.8132C10.0589 33.237 9.95588 33.733 9.95588 34.3011C9.95588 34.8646 10.0589 35.357 10.2648 35.7784C10.4732 36.1998 10.762 36.5277 11.1313 36.7621ZM13.3508 36.0732C13.1093 36.2649 12.8015 36.3608 12.4275 36.3608C12.0534 36.3608 11.7456 36.2649 11.5042 36.0732C11.2627 35.8814 11.084 35.6293 10.968 35.3168C10.8519 35.0043 10.7939 34.6657 10.7939 34.3011C10.7939 33.9366 10.8519 33.5968 10.968 33.282C11.084 32.9671 11.2627 32.7126 11.5042 32.5185C11.7456 32.3243 12.0534 32.2273 12.4275 32.2273C12.8015 32.2273 13.1093 32.3243 13.3508 32.5185C13.5922 32.7126 13.771 32.9671 13.887 33.282C14.003 33.5968 14.061 33.9366 14.061 34.3011C14.061 34.6657 14.003 35.0043 13.887 35.3168C13.771 35.6293 13.5922 35.8814 13.3508 36.0732Z" fill="#CFD1DE"/>
<path d="M16.1428 39.0099C16.2541 39.0336 16.3808 39.0455 16.5228 39.0455C16.7761 39.0455 17.0034 39.0005 17.2046 38.9105C17.4082 38.8205 17.587 38.6821 17.7409 38.495C17.8947 38.3104 18.0238 38.0772 18.1279 37.7955L20.4433 31.5455H19.5342L18.0285 35.892H17.9717L16.466 31.5455H15.5569L17.574 37.0284L17.4177 37.4545C17.3159 37.7315 17.2035 37.9316 17.0803 38.0547C16.9596 38.1802 16.8211 38.25 16.6649 38.2642C16.5086 38.2784 16.3287 38.2595 16.1251 38.2074L15.912 38.946C15.9546 38.9673 16.0316 38.9886 16.1428 39.0099Z" fill="#CFD1DE"/>
<path fill-rule="evenodd" clip-rule="evenodd" d="M22.281 36.7656C22.6621 36.9976 23.1155 37.1136 23.6411 37.1136C24.0104 37.1136 24.343 37.0568 24.6389 36.9432C24.9349 36.8272 25.1834 36.6662 25.3847 36.4602C25.5859 36.2519 25.7291 36.0104 25.8144 35.7358L25.0047 35.5085C24.9337 35.6979 24.8331 35.8565 24.7029 35.9844C24.5727 36.1098 24.4176 36.2045 24.2377 36.2685C24.0601 36.33 23.8612 36.3608 23.6411 36.3608C23.3025 36.3608 23.0054 36.2874 22.7497 36.1406C22.4941 35.9915 22.294 35.7749 22.1496 35.4908C22.0208 35.231 21.9504 34.9197 21.9384 34.5568H25.8996V34.2017C25.8996 33.6927 25.8321 33.2642 25.6972 32.9162C25.5622 32.5682 25.3811 32.2888 25.1539 32.0781C24.9266 31.8651 24.6744 31.7112 24.3975 31.6165C24.1205 31.5218 23.8399 31.4744 23.5558 31.4744C23.0634 31.4744 22.6325 31.5952 22.2632 31.8366C21.8963 32.0758 21.6098 32.4096 21.4039 32.8381C21.2003 33.2642 21.0985 33.7566 21.0985 34.3153C21.0985 34.8741 21.2003 35.3641 21.4039 35.7855C21.6098 36.2045 21.9022 36.5312 22.281 36.7656ZM21.9405 33.8324C21.9565 33.5794 22.0203 33.3403 22.1318 33.1151C22.262 32.8523 22.4479 32.6392 22.6894 32.4759C22.9332 32.3101 23.222 32.2273 23.5558 32.2273C23.8589 32.2273 24.1217 32.2971 24.3442 32.4368C24.5691 32.5765 24.7419 32.767 24.8627 33.0085C24.9858 33.25 25.0473 33.5246 25.0473 33.8324H21.9405Z" fill="#CFD1DE"/>
<path d="M28.0693 36.7514C28.4387 36.9929 28.879 37.1136 29.3904 37.1136C29.7928 37.1136 30.1456 37.0391 30.4486 36.8899C30.754 36.7384 30.999 36.5348 31.1837 36.2791C31.3707 36.0211 31.4879 35.7311 31.5352 35.4091H30.6972C30.6451 35.608 30.5575 35.7784 30.4344 35.9205C30.3113 36.0625 30.161 36.1714 29.9834 36.2472C29.8058 36.3229 29.6082 36.3608 29.3904 36.3608C29.0589 36.3608 28.7701 36.2744 28.5239 36.1016C28.28 35.9287 28.0906 35.6861 27.9557 35.3736C27.8231 35.0611 27.7568 34.6941 27.7568 34.2727C27.7568 33.8608 27.8243 33.5021 27.9593 33.1967C28.0966 32.889 28.2871 32.651 28.531 32.483C28.7772 32.3125 29.0637 32.2273 29.3904 32.2273C29.7597 32.2273 30.0532 32.3243 30.271 32.5185C30.4912 32.7102 30.6333 32.9304 30.6972 33.179H31.5352C31.4879 32.8381 31.366 32.5398 31.1695 32.2841C30.973 32.0284 30.7209 31.8295 30.4131 31.6875C30.1053 31.5455 29.7597 31.4744 29.3762 31.4744C28.8837 31.4744 28.4529 31.5952 28.0835 31.8366C27.7166 32.0758 27.4301 32.4084 27.2242 32.8345C27.0206 33.2583 26.9188 33.7472 26.9188 34.3011C26.9188 34.8456 27.0182 35.3298 27.2171 35.7536C27.4159 36.1773 27.7 36.5099 28.0693 36.7514Z" fill="#CFD1DE"/>
<path d="M35.1325 32.2557V31.5455H33.9678V30.2386H33.1297V31.5455H32.3058V32.2557H33.1297V35.6648C33.1297 35.982 33.2031 36.2448 33.3499 36.4531C33.499 36.6615 33.6861 36.8165 33.911 36.9183C34.1382 37.0201 34.3702 37.071 34.607 37.071C34.7632 37.071 34.8923 37.0592 34.9941 37.0355C35.0959 37.0142 35.1752 36.9929 35.232 36.9716L35.0615 36.2188L34.9195 36.2472C34.8603 36.2566 34.7845 36.2614 34.6922 36.2614C34.5691 36.2614 34.4519 36.2424 34.3406 36.2045C34.2317 36.1643 34.1418 36.0862 34.0708 35.9702C34.0021 35.8518 33.9678 35.6742 33.9678 35.4375V32.2557H35.1325Z" fill="#CFD1DE"/>
<path fill-rule="evenodd" clip-rule="evenodd" d="M37.2544 36.7621C37.626 36.9964 38.0581 37.1136 38.5505 37.1136C39.0429 37.1136 39.4738 36.9964 39.8431 36.7621C40.2148 36.5277 40.5036 36.1998 40.7096 35.7784C40.9179 35.357 41.0221 34.8646 41.0221 34.3011C41.0221 33.733 40.9179 33.237 40.7096 32.8132C40.5036 32.3894 40.2148 32.0604 39.8431 31.826C39.4738 31.5916 39.0429 31.4744 38.5505 31.4744C38.0581 31.4744 37.626 31.5916 37.2544 31.826C36.885 32.0604 36.5962 32.3894 36.3879 32.8132C36.1819 33.237 36.0789 33.733 36.0789 34.3011C36.0789 34.8646 36.1819 35.357 36.3879 35.7784C36.5962 36.1998 36.885 36.5277 37.2544 36.7621ZM39.4738 36.0732C39.2323 36.2649 38.9246 36.3608 38.5505 36.3608C38.1765 36.3608 37.8687 36.2649 37.6272 36.0732C37.3857 35.8814 37.207 35.6293 37.091 35.3168C36.975 35.0043 36.917 34.6657 36.917 34.3011C36.917 33.9366 36.975 33.5968 37.091 33.282C37.207 32.9671 37.3857 32.7126 37.6272 32.5185C37.8687 32.3243 38.1765 32.2273 38.5505 32.2273C38.9246 32.2273 39.2323 32.3243 39.4738 32.5185C39.7153 32.7126 39.894 32.9671 40.01 33.282C40.126 33.5968 40.184 33.9366 40.184 34.3011C40.184 34.6657 40.126 35.0043 40.01 35.3168C39.894 35.6293 39.7153 35.8814 39.4738 36.0732Z" fill="#CFD1DE"/>
<path d="M45.4122 32.9801L46.165 32.767C46.0348 32.3788 45.8147 32.0663 45.5045 31.8295C45.1968 31.5928 44.773 31.4744 44.2332 31.4744C43.8497 31.4744 43.5064 31.5419 43.2034 31.6768C42.9027 31.8118 42.6648 31.9976 42.4896 32.2344C42.3168 32.4711 42.2304 32.7434 42.2304 33.0511C42.2304 33.4276 42.3464 33.7412 42.5784 33.9922C42.8128 34.2408 43.1797 34.4242 43.6792 34.5426L44.5883 34.7557C44.863 34.8196 45.0666 34.9167 45.1991 35.0469C45.3317 35.1747 45.398 35.3333 45.398 35.5227C45.398 35.7571 45.282 35.9583 45.05 36.1264C44.8203 36.2921 44.5102 36.375 44.1196 36.375C43.7763 36.375 43.4981 36.3016 43.2851 36.1548C43.0744 36.008 42.9311 35.7879 42.8554 35.4943L42.0599 35.6932C42.157 36.1572 42.3878 36.5099 42.7524 36.7514C43.117 36.9929 43.5774 37.1136 44.1338 37.1136C44.5576 37.1136 44.9292 37.0426 45.2488 36.9006C45.5685 36.7585 45.817 36.5644 45.9946 36.3182C46.1745 36.072 46.2645 35.7926 46.2645 35.4801C46.2645 35.099 46.1449 34.7876 45.9058 34.5462C45.6667 34.3023 45.3033 34.1212 44.8156 34.0028L44.006 33.804C43.684 33.7235 43.4472 33.6229 43.2957 33.5021C43.1442 33.3814 43.0685 33.2169 43.0685 33.0085C43.0685 32.7741 43.1785 32.5812 43.3987 32.4297C43.6212 32.2758 43.8994 32.1989 44.2332 32.1989C44.4771 32.1989 44.6771 32.2379 44.8334 32.3161C44.9896 32.3942 45.1127 32.4936 45.2027 32.6143C45.295 32.7327 45.3649 32.8546 45.4122 32.9801Z" fill="#CFD1DE"/>
</svg>
