<svg width="28" height="38" viewBox="0 0 28 38" fill="none" xmlns="http://www.w3.org/2000/svg">
<path fill-rule="evenodd" clip-rule="evenodd" d="M14.5997 0.894227C14.2431 0.631612 13.7571 0.631612 13.4004 0.894227L4.52235 7.43172C3.48699 8.19412 2.87574 9.40331 2.87574 10.6891V21.429C2.87574 23.3838 4.46046 24.9685 6.4153 24.9685H9.95486C11.0719 24.9685 11.9775 24.063 11.9775 22.9459V17.3838H16.0227V22.9459C16.0227 24.063 16.9282 24.9685 18.0453 24.9685H21.5848C23.5397 24.9685 25.1244 23.3838 25.1244 21.429V10.6891C25.1244 9.40331 24.5131 8.19411 23.4778 7.43172L14.5997 0.894227ZM5.72165 9.0604L14.0001 2.96447L22.2785 9.0604C22.7962 9.4416 23.1018 10.0462 23.1018 10.6891V21.429C23.1018 22.2668 22.4226 22.9459 21.5848 22.9459H18.0453V16.8781C18.0453 16.0403 17.3661 15.3612 16.5283 15.3612H11.4718C10.634 15.3612 9.95486 16.0403 9.95486 16.8781V22.9459H6.4153C5.57751 22.9459 4.89835 22.2668 4.89835 21.429V10.6891C4.89835 10.0462 5.20397 9.4416 5.72165 9.0604Z" fill="#CFD1DE"/>
<path d="M0.94043 30.4245V37.6973H1.82111V34.4444H5.69895V37.6973H6.57964V30.4245H5.69895V33.6632H1.82111V30.4245H0.94043Z" fill="#CFD1DE"/>
<path fill-rule="evenodd" clip-rule="evenodd" d="M9.14888 37.4593C9.52057 37.6937 9.95262 37.8109 10.445 37.8109C10.9375 37.8109 11.3683 37.6937 11.7377 37.4593C12.1093 37.225 12.3982 36.8971 12.6041 36.4757C12.8125 36.0543 12.9166 35.5618 12.9166 34.9984C12.9166 34.4302 12.8125 33.9342 12.6041 33.5105C12.3982 33.0867 12.1093 32.7576 11.7377 32.5233C11.3683 32.2889 10.9375 32.1717 10.445 32.1717C9.95262 32.1717 9.52057 32.2889 9.14888 32.5233C8.77956 32.7576 8.49074 33.0867 8.28241 33.5105C8.07644 33.9342 7.97346 34.4302 7.97346 34.9984C7.97346 35.5618 8.07644 36.0543 8.28241 36.4757C8.49074 36.8971 8.77956 37.225 9.14888 37.4593ZM11.3683 36.7704C11.1269 36.9622 10.8191 37.0581 10.445 37.0581C10.071 37.0581 9.76323 36.9622 9.52175 36.7704C9.28028 36.5787 9.10153 36.3265 8.98553 36.014C8.86953 35.7015 8.81153 35.363 8.81153 34.9984C8.81153 34.6338 8.86953 34.2941 8.98553 33.9792C9.10153 33.6644 9.28028 33.4099 9.52175 33.2157C9.76323 33.0216 10.071 32.9245 10.445 32.9245C10.8191 32.9245 11.1269 33.0216 11.3683 33.2157C11.6098 33.4099 11.7886 33.6644 11.9046 33.9792C12.0206 34.2941 12.0786 34.6338 12.0786 34.9984C12.0786 35.363 12.0206 35.7015 11.9046 36.014C11.7886 36.3265 11.6098 36.5787 11.3683 36.7704Z" fill="#CFD1DE"/>
<path d="M14.1959 32.2427V37.6973H15.034V34.2882C15.034 34.0207 15.0908 33.7851 15.2045 33.5815C15.3205 33.3755 15.472 33.2145 15.659 33.0985C15.8484 32.9825 16.052 32.9245 16.2698 32.9245C16.587 32.9245 16.8463 33.0204 17.0475 33.2122C17.2487 33.4016 17.3493 33.6513 17.3493 33.9615V37.6973H18.2016V34.1461C18.2016 33.7934 18.307 33.5022 18.5177 33.2725C18.7284 33.0405 19.0255 32.9245 19.409 32.9245C19.7073 32.9245 19.9665 33.0109 20.1867 33.1838C20.4069 33.3566 20.517 33.6442 20.517 34.0467V37.6973H21.355V34.0467C21.355 33.4051 21.2 32.9328 20.8898 32.6298C20.5797 32.3244 20.1808 32.1717 19.6931 32.1717C19.3025 32.1717 18.9675 32.2557 18.6881 32.4238C18.4088 32.5895 18.1992 32.8133 18.0596 33.095H18.0028C17.8678 32.8038 17.6796 32.5777 17.4381 32.4167C17.199 32.2534 16.8995 32.1717 16.5397 32.1717C16.1846 32.1717 15.8804 32.2534 15.627 32.4167C15.3737 32.5777 15.1903 32.8038 15.0766 33.095H15.0056V32.2427H14.1959Z" fill="#CFD1DE"/>
<path fill-rule="evenodd" clip-rule="evenodd" d="M23.8142 37.4629C24.1953 37.6949 24.6487 37.8109 25.1743 37.8109C25.5436 37.8109 25.8762 37.7541 26.1721 37.6404C26.4681 37.5244 26.7167 37.3635 26.9179 37.1575C27.1191 36.9492 27.2623 36.7077 27.3476 36.4331L26.5379 36.2058C26.4669 36.3952 26.3663 36.5538 26.2361 36.6816C26.1059 36.8071 25.9508 36.9018 25.7709 36.9657C25.5933 37.0273 25.3944 37.0581 25.1743 37.0581C24.8357 37.0581 24.5386 36.9847 24.2829 36.8379C24.0273 36.6887 23.8272 36.4721 23.6828 36.188C23.554 35.9283 23.4836 35.617 23.4716 35.2541H27.4328V34.899C27.4328 34.39 27.3653 33.9615 27.2304 33.6135C27.0954 33.2654 26.9143 32.9861 26.6871 32.7754C26.4598 32.5623 26.2077 32.4084 25.9307 32.3137C25.6537 32.219 25.3731 32.1717 25.089 32.1717C24.5966 32.1717 24.1658 32.2924 23.7964 32.5339C23.4295 32.773 23.143 33.1068 22.9371 33.5353C22.7335 33.9615 22.6317 34.4539 22.6317 35.0126C22.6317 35.5713 22.7335 36.0614 22.9371 36.4828C23.143 36.9018 23.4354 37.2285 23.8142 37.4629ZM23.4737 34.5297C23.4897 34.2766 23.5535 34.0375 23.665 33.8123C23.7952 33.5495 23.9811 33.3365 24.2226 33.1731C24.4664 33.0074 24.7552 32.9245 25.089 32.9245C25.3921 32.9245 25.6549 32.9944 25.8774 33.1341C26.1023 33.2737 26.2751 33.4643 26.3959 33.7058C26.519 33.9473 26.5805 34.2219 26.5805 34.5297H23.4737Z" fill="#CFD1DE"/>
</svg>
