<svg width="6" height="12" viewBox="0 0 6 12" fill="none" xmlns="http://www.w3.org/2000/svg">
<path fill-rule="evenodd" clip-rule="evenodd" d="M2.34979 1.19234C2.34979 0.894108 2.59155 0.652344 2.88978 0.652344C3.18801 0.652344 3.42978 0.894107 3.42978 1.19234V1.74651C4.55692 1.98167 5.40577 3.01373 5.40577 4.25128C5.40577 4.69963 5.05511 5.0631 4.62254 5.0631C4.18997 5.0631 3.8393 4.69963 3.8393 4.25128C3.8393 3.73687 3.43698 3.31986 2.94068 3.31986C2.44438 3.31986 2.04206 3.73687 2.04206 4.25128C2.04206 4.76569 2.44438 5.1827 2.94068 5.1827C2.95063 5.1827 2.96053 5.18289 2.97039 5.18327C4.31831 5.19956 5.40616 6.33718 5.40616 7.73815C5.40616 8.97585 4.5571 10.008 3.42977 10.243L3.42977 10.8448C3.42977 11.143 3.188 11.3848 2.88977 11.3848C2.59154 11.3848 2.34978 11.143 2.34978 10.8448L2.34978 10.2192C1.27391 9.94471 0.475971 8.93801 0.475971 7.73815C0.475971 7.28979 0.826638 6.92633 1.25921 6.92633C1.69178 6.92633 2.04244 7.28979 2.04244 7.73815C2.04244 8.25256 2.44477 8.66957 2.94106 8.66957C3.43736 8.66957 3.83969 8.25256 3.83969 7.73815C3.83969 7.22374 3.43736 6.80673 2.94106 6.80673C2.93112 6.80673 2.92121 6.80654 2.91135 6.80616C1.56343 6.78987 0.475586 5.65225 0.475586 4.25128C0.475586 3.05127 1.27372 2.04448 2.34979 1.77009V1.19234Z" fill="#55B3FF"/>
</svg>
