<svg width="18" height="13" viewBox="0 0 18 13" fill="none" xmlns="http://www.w3.org/2000/svg">
<path fill-rule="evenodd" clip-rule="evenodd" d="M9.06785 2.84599C11.5344 2.8461 13.9066 3.81668 15.6943 5.55712C15.8289 5.69149 16.044 5.68979 16.1766 5.55332L17.4634 4.2234C17.5305 4.15418 17.5679 4.06042 17.5674 3.96287C17.5668 3.86531 17.5283 3.77201 17.4604 3.7036C12.7685 -0.901199 5.36646 -0.901199 0.674546 3.7036C0.60658 3.77196 0.568017 3.86523 0.567391 3.96279C0.566764 4.06034 0.604125 4.15413 0.671206 4.2234L1.95835 5.55332C2.09084 5.69 2.30617 5.6917 2.4407 5.55712C4.22854 3.81656 6.60105 2.84598 9.06785 2.84599ZM9.06783 7.17266C10.423 7.17257 11.7299 7.68843 12.7345 8.61999C12.8703 8.7522 13.0844 8.74933 13.2168 8.61353L14.5021 7.28361C14.5698 7.21386 14.6073 7.11922 14.6064 7.02089C14.6054 6.92255 14.566 6.82872 14.4969 6.76039C11.4378 3.84629 6.70045 3.84629 3.64137 6.76039C3.57227 6.82872 3.53284 6.9226 3.53194 7.02097C3.53103 7.11933 3.56872 7.21396 3.63655 7.28361L4.92146 8.61353C5.05391 8.74933 5.26794 8.7522 5.40381 8.61999C6.4077 7.68905 7.71352 7.17323 9.06783 7.17266ZM11.6425 10.084C11.6444 10.1826 11.6066 10.2777 11.5378 10.3468L9.31457 12.6445C9.2494 12.712 9.16054 12.75 9.06783 12.75C8.97512 12.75 8.88626 12.712 8.82109 12.6445L6.59744 10.3468C6.52875 10.2776 6.49096 10.1825 6.493 10.0839C6.49504 9.98529 6.53672 9.89191 6.6082 9.82581C8.02807 8.59595 10.1076 8.59595 11.5275 9.82581C11.5989 9.89196 11.6405 9.98537 11.6425 10.084Z" fill="black"/>
</svg>
