<svg width="18" height="14" viewBox="0 0 18 14" fill="none" xmlns="http://www.w3.org/2000/svg">
<path fill-rule="evenodd" clip-rule="evenodd" d="M8.66941 3.34599C11.136 3.3461 13.5082 4.31668 15.2958 6.05712C15.4304 6.19149 15.6456 6.18979 15.7782 6.05332L17.0649 4.7234C17.1321 4.65418 17.1695 4.56042 17.1689 4.46287C17.1684 4.36531 17.1299 4.27201 17.062 4.2036C12.3701 -0.401199 4.96802 -0.401199 0.276108 4.2036C0.208143 4.27196 0.16958 4.36523 0.168953 4.46279C0.168326 4.56034 0.205687 4.65413 0.272769 4.7234L1.55991 6.05332C1.6924 6.19 1.90773 6.1917 2.04226 6.05712C3.8301 4.31656 6.20261 3.34598 8.66941 3.34599ZM8.6694 7.67266C10.0246 7.67257 11.3315 8.18843 12.336 9.11999C12.4719 9.2522 12.6859 9.24933 12.8184 9.11353L14.1037 7.78361C14.1713 7.71386 14.2089 7.61922 14.2079 7.52089C14.2069 7.42255 14.1675 7.32872 14.0985 7.26039C11.0394 4.34629 6.30201 4.34629 3.24293 7.26039C3.17383 7.32872 3.13441 7.4226 3.1335 7.52096C3.13259 7.61933 3.17028 7.71396 3.23811 7.78361L4.52302 9.11353C4.65547 9.24933 4.8695 9.2522 5.00537 9.11999C6.00927 8.18905 7.31508 7.67323 8.6694 7.67266ZM11.244 10.584C11.246 10.6826 11.2081 10.7777 11.1394 10.8468L8.91613 13.1445C8.85096 13.212 8.7621 13.25 8.66939 13.25C8.57668 13.25 8.48782 13.212 8.42265 13.1445L6.199 10.8468C6.13031 10.7776 6.09252 10.6825 6.09456 10.5839C6.0966 10.4853 6.13828 10.3919 6.20976 10.3258C7.62963 9.09595 9.70915 9.09595 11.129 10.3258C11.2005 10.392 11.2421 10.4854 11.244 10.584Z" fill="black"/>
</svg>
